<?xml version="1.0" encoding="utf-8"?>
<!-- Generator: Adobe Illustrator 16.2.0, SVG Export Plug-In . SVG Version: 6.00 Build 0)  -->
<!DOCTYPE svg PUBLIC "-//W3C//DTD SVG 1.1//EN" "http://www.w3.org/Graphics/SVG/1.1/DTD/svg11.dtd">
<svg version="1.1" id="Layer_1" xmlns="http://www.w3.org/2000/svg" xmlns:xlink="http://www.w3.org/1999/xlink" x="0px" y="0px"
	 width="477px" height="419px" viewBox="0 0 477 419" enable-background="new 0 0 477 419" xml:space="preserve">
<g>
	<path fill="#FFFFFF" d="M305.638,98.274c24.391-4.805,38.038-0.066,46.127,15.276c10.871,20.629-1.408,47.213-24.763,48.877
		c-27.863,1.99-55.976,0.475-84.939,0.475c0-28.612-1.022-56.286,0.35-83.838c0.965-19.291,18.905-32.371,37.189-29.979
		c18.839,2.459,31.614,20.105,28.594,39.673C307.764,91.581,306.723,94.307,305.638,98.274z"/>
	<path fill="#FFFFFF" d="M168.846,235.342c-8.809,2.245-16.053,3.959-23.523,2.215c-15.966-3.729-27.123-18.543-26.174-34.794
		c0.967-16.626,14.232-30.892,31.346-31.376c26.925-0.762,53.884-0.201,82.697-0.201c0,17.375,0.002,34.224,0,51.065
		c-0.003,9.13,0.112,18.265-0.049,27.393c-0.261,14.946-6.39,26.587-20.324,32.91c-12.478,5.673-24.547,3.776-34.959-4.908
		c-11.797-9.843-14.321-22.701-10.1-37.159C168.085,239.381,168.244,238.229,168.846,235.342z"/>
	<path fill="#FFFFFF" d="M168.31,98.782c-4.685-24.209,0.888-39.317,16.109-46.401c21.21-9.867,44.136,1.443,47.507,25.455
		c3.906,27.794,0.87,55.934,1.514,85.052c-29.85,0-58.353,1.39-86.636-0.497c-18.376-1.227-30.924-22.085-27.092-39.408
		c4.099-18.516,21.3-29.653,40.293-26.067C162.346,97.358,164.653,97.954,168.31,98.782z"/>
	<path fill="#FFFFFF" d="M306.063,236.372c2.324,8.146,3.314,15.11,1.916,22.118c-3.116,15.601-17.063,26.976-32.818,27.012
		c-15.138,0.037-28.195-10.697-31.935-26.258c-2.238-9.313-2.482-74.346-0.136-87.657c28.258,0,56.81-1.335,85.155,0.495
		c17.345,1.119,29.694,20.646,27.275,37.339c-2.646,18.249-17.071,29.92-35.892,28.843
		C315.606,238.032,311.616,237.169,306.063,236.372z"/>
</g>
<g>
	<path fill="#FFFFFF" d="M436.009,4.222H41.133c-18.54,0-33.645,15.1-33.645,33.645v254.461c0,18.563,15.105,33.653,33.645,33.653
		h188.663v68.009h-60.332c-4.846,0-8.776,3.935-8.776,8.774c0,4.86,3.93,8.776,8.776,8.776H306.58c4.843,0,8.776-3.916,8.776-8.776
		c0-4.84-3.934-8.774-8.776-8.774h-59.234v-68.009h188.663c18.536,0,33.646-15.091,33.646-33.653V37.867
		C469.654,19.322,454.545,4.222,436.009,4.222z M452.103,292.336c0,8.879-7.206,16.103-16.094,16.103H41.133
		c-8.883,0-16.094-7.233-16.094-16.103V37.867c0-8.878,7.211-16.103,16.094-16.103h394.876c8.888,0,16.094,7.225,16.094,16.103
		V292.336z"/>
</g>
</svg>
