<?xml version="1.0" encoding="utf-8"?>
<!-- Generator: Adobe Illustrator 16.2.0, SVG Export Plug-In . SVG Version: 6.00 Build 0)  -->
<!DOCTYPE svg PUBLIC "-//W3C//DTD SVG 1.1//EN" "http://www.w3.org/Graphics/SVG/1.1/DTD/svg11.dtd">
<svg version="1.1" id="Layer_1" xmlns="http://www.w3.org/2000/svg" xmlns:xlink="http://www.w3.org/1999/xlink" x="0px" y="0px"
	 width="400.703px" height="400px" viewBox="0 0 400.703 400" enable-background="new 0 0 400.703 400" xml:space="preserve">
<g>
	<path fill-rule="evenodd" clip-rule="evenodd" fill="#FE7A05" d="M316.213,84.775c16.514-4.995,30.861-7.571,45.344-2.867
		c24.773,8.047,40.914,32.365,38.992,58.449c-1.967,26.614-22.326,50.748-49.453,51.878c-46.838,1.951-93.814,0.542-141.977,0.542
		c0-49.358-2.219-97.579,0.796-145.475c1.943-30.825,32.24-50.66,61.853-46.831c30.475,3.939,51.891,31.425,48.779,63.03
		C319.947,69.648,318.109,75.67,316.213,84.775z"/>
	<path fill-rule="evenodd" clip-rule="evenodd" fill="#FE7A05" d="M84.247,314.984c-14.885,3.779-27.148,6.655-39.792,3.689
		c-27.003-6.329-45.864-31.362-44.233-58.784c1.668-28.068,24.13-52.116,53.096-52.925c45.559-1.277,91.18-0.341,139.945-0.341
		c0,29.372,0.003,57.807-0.003,86.245c-0.001,15.411,0.195,30.83-0.084,46.238c-0.455,25.223-10.828,44.874-34.412,55.559
		c-21.115,9.571-41.529,6.381-59.157-8.278c-19.98-16.618-24.229-38.326-17.111-62.726
		C83.036,321.799,83.275,319.849,84.247,314.984z"/>
	<path fill-rule="evenodd" clip-rule="evenodd" fill="#FEBC81" d="M82.967,82.076c-7.429-38.648,2.026-64.153,27.775-76.043
		c35.975-16.61,74.554,2.411,80.351,43.041c6.694,46.911,1.469,94.411,2.625,143.563c-50.582,0-98.825,2.359-146.697-0.841
		c-31.071-2.073-52.35-37.375-45.849-66.55c6.966-31.253,36.079-50.06,68.19-43.995C73.344,82.002,77.007,84.952,82.967,82.076z"/>
	<path fill-rule="evenodd" clip-rule="evenodd" fill="#FEBC81" d="M316.611,316.739c3.953,13.755,5.58,25.522,3.188,37.354
		c-5.334,26.393-28.877,45.515-55.574,45.552c-25.598,0.035-47.64-18.088-53.982-44.391c-3.846-15.95-4.266-125.542-0.229-147.961
		c47.815,0,96.141-2.252,144.122,0.838c29.268,1.883,50.271,34.999,46.166,63.063c-4.51,30.866-28.799,50.462-60.742,48.687
		C332.754,319.5,326.008,318.059,316.611,316.739z"/>
</g>
</svg>
