<?xml version="1.0" encoding="utf-8"?>
<!-- Generator: Adobe Illustrator 16.2.0, SVG Export Plug-In . SVG Version: 6.00 Build 0)  -->
<!DOCTYPE svg PUBLIC "-//W3C//DTD SVG 1.1//EN" "http://www.w3.org/Graphics/SVG/1.1/DTD/svg11.dtd">
<svg version="1.1" id="Layer_1" xmlns="http://www.w3.org/2000/svg" xmlns:xlink="http://www.w3.org/1999/xlink" x="0px" y="0px"
	 width="397.616px" height="398.016px" viewBox="0 0 397.616 398.016" enable-background="new 0 0 397.616 398.016"
	 xml:space="preserve">
<g>
	<path fill-rule="evenodd" clip-rule="evenodd" fill="#7E0F8B" d="M313.427,83.088c40.966-8.069,63.886-0.111,77.47,25.657
		c18.258,34.649-2.366,79.296-41.588,82.093c-46.797,3.342-94.015,0.79-142.658,0.79c0-48.05-1.72-94.527,0.588-140.805
		c1.619-32.396,31.751-54.363,62.46-50.35c31.641,4.131,53.094,33.769,48.026,66.632C316.998,71.844,315.25,76.427,313.427,83.088z"
		/>
	<path fill-rule="evenodd" clip-rule="evenodd" fill="#7E0F8B" d="M83.682,313.295c-14.795,3.775-26.962,6.652-39.509,3.723
		c-26.813-6.264-45.551-31.146-43.961-58.438c1.627-27.922,23.905-51.884,52.648-52.698c45.22-1.278,90.5-0.339,138.892-0.339
		c0,29.185,0.003,57.479-0.001,85.771c-0.001,15.332,0.188,30.673-0.082,46.005c-0.44,25.099-10.729,44.651-34.135,55.275
		c-20.956,9.521-41.225,6.338-58.711-8.246c-19.816-16.533-24.054-38.129-16.962-62.41
		C82.404,320.082,82.672,318.146,83.682,313.295z"/>
	<path fill-rule="evenodd" clip-rule="evenodd" fill="#BD87C4" d="M82.78,83.941c-7.868-40.66,1.493-66.035,27.058-77.932
		c35.621-16.572,74.124,2.423,79.788,42.753c6.559,46.68,1.461,93.941,2.542,142.849c-50.132,0-98.004,2.333-145.509-0.838
		c-30.862-2.057-51.937-37.09-45.499-66.186C8.043,93.49,36.934,74.782,68.834,80.807C72.763,81.551,76.639,82.551,82.78,83.941z"/>
	<path fill-rule="evenodd" clip-rule="evenodd" fill="#BD87C4" d="M314.142,315.028c3.907,13.677,5.567,25.376,3.217,37.148
		c-5.234,26.2-28.658,45.308-55.121,45.366c-25.424,0.062-47.355-17.968-53.632-44.097c-3.761-15.642-4.17-124.87-0.229-147.225
		c47.458,0,95.412-2.244,143.021,0.829c29.131,1.883,49.873,34.681,45.807,62.712c-4.445,30.651-28.669,50.254-60.28,48.444
		C330.165,317.818,323.468,316.364,314.142,315.028z"/>
</g>
</svg>
