<?xml version="1.0" encoding="utf-8"?>
<!-- Generator: Adobe Illustrator 16.2.0, SVG Export Plug-In . SVG Version: 6.00 Build 0)  -->
<!DOCTYPE svg PUBLIC "-//W3C//DTD SVG 1.1//EN" "http://www.w3.org/Graphics/SVG/1.1/DTD/svg11.dtd">
<svg version="1.1" id="Layer_1" xmlns="http://www.w3.org/2000/svg" xmlns:xlink="http://www.w3.org/1999/xlink" x="0px" y="0px"
	 width="399.25px" height="400px" viewBox="0 0 399.25 400" enable-background="new 0 0 399.25 400" xml:space="preserve">
<g>
	<path fill-rule="evenodd" clip-rule="evenodd" fill="#249552" d="M193.208,207.271c0,48.654,1.281,95.261-0.451,141.762
		c-1.146,30.692-30.262,53.024-60.823,50.531c-30.846-2.515-53.54-28.589-51.622-59.857c0.448-7.319,2.463-14.535,3.718-21.581
		c-5.691-3.814-9.949,0.218-14.491,1.026c-33.282,5.946-64.396-16.243-68.303-48.771c-3.916-32.616,21.187-62.246,55.082-62.896
		C100.926,206.626,145.563,207.271,193.208,207.271z"/>
	<path fill-rule="evenodd" clip-rule="evenodd" fill="#249552" d="M311.93,84.319c6.46,3.164,10.646-0.34,15.245-1.411
		c34.137-7.946,66.213,13.278,70.987,46.854c4.763,33.501-20.223,63.802-55.172,64.563c-44.546,0.968-89.128,0.232-134.584,0.232
		c-4.707-14.32-2.033-28.887-2.229-43.138c-0.434-31.334-0.634-62.694,0.106-94.018c0.584-24.828,15.406-44.114,38.224-52.017
		c22.863-7.918,42.682-1.983,59.13,14.795C320.757,37.645,323.271,59.48,311.93,84.319z"/>
	<path fill-rule="evenodd" clip-rule="evenodd" fill="#90CAA8" d="M83.281,86.007c-6.719-43.377,3.396-67.658,31.558-79.456
		c33.886-14.193,75.873,8.678,77.782,45.443c2.411,46.425,0.581,93.064,0.581,141.529c-50.026,0-98.648,2.314-146.909-0.851
		c-29.854-1.956-50.428-36.558-44.557-65.107C7.818,98.014,37.36,77.53,67.244,82.279C71.948,83.027,76.547,84.421,83.281,86.007z"
		/>
	<path fill-rule="evenodd" clip-rule="evenodd" fill="#90CAA8" d="M314.464,316.43c7.314,25.715,6.869,47.829-12.196,65.726
		c-16.399,15.389-35.063,22.839-57.204,14.171c-22.516-8.814-37.954-24.813-38.576-49.67c-1.137-45.228-0.323-90.501-0.323-136.526
		c16.118-5.729,32.141-2.437,47.779-2.78c27.157-0.597,54.358,0.479,81.503-0.347c26.642-0.811,46.196,10.508,57.797,33.497
		c10.282,20.374,7.044,41.078-7.282,58.786c-16.105,19.916-37.56,24.92-61.992,18.819
		C321.999,317.616,319.964,317.387,314.464,316.43z"/>
</g>
</svg>
