<?xml version="1.0" encoding="utf-8"?>
<!-- Generator: Adobe Illustrator 16.2.0, SVG Export Plug-In . SVG Version: 6.00 Build 0)  -->
<!DOCTYPE svg PUBLIC "-//W3C//DTD SVG 1.1//EN" "http://www.w3.org/Graphics/SVG/1.1/DTD/svg11.dtd">
<svg version="1.1" id="Layer_1" xmlns="http://www.w3.org/2000/svg" xmlns:xlink="http://www.w3.org/1999/xlink" x="0px" y="0px"
	 width="395.629px" height="400px" viewBox="0 0 395.629 400" enable-background="new 0 0 395.629 400" xml:space="preserve">
<g>
	<path fill-rule="evenodd" clip-rule="evenodd" fill="#2B0D8A" d="M83.653,313.611c-23.517,7.93-43.458,7.328-61.498-6.722
		c-18.356-14.293-26.22-37.818-19.862-59.592c6.912-23.68,27.039-40.845,51.661-41.262c44.906-0.763,89.832-0.218,136.402-0.218
		c0,49.954,2.357,99.249-0.88,148.176c-1.946,29.427-34.174,48.657-63.057,44.076c-29.466-4.669-49.901-30.938-47.283-61.308
		C79.714,330.059,81.68,323.479,83.653,313.611z"/>
	<path fill-rule="evenodd" clip-rule="evenodd" fill="#2B0D8A" d="M309.884,83.073c7.218,3.391,12.462-1.872,18.396-2.896
		c32.161-5.552,62.159,15.824,66.764,47.818c4.586,31.839-18.281,63.17-50.592,64.424c-46.16,1.79-92.438,0.455-140.135,0.455
		c0-48.146-1.138-94.777,0.479-141.309c0.813-23.391,15.04-39.996,37.49-47.966c22.706-8.062,42.81-2.359,58.7,14.894
		C318.402,37.396,321.48,59.572,309.884,83.073z"/>
	<path fill-rule="evenodd" clip-rule="evenodd" fill="#9486C4" d="M314.456,316.007c-3.879,6.546,0.739,11.389,1.487,16.624
		c4.487,31.319-16.812,60.746-47.655,65.523c-29.616,4.581-62.09-18.842-63.391-49.666c-1.971-46.595-0.516-93.334-0.516-141.625
		c49.695,0,98.078-2.217,146.138,0.84c28.354,1.806,47.96,33.108,44.748,61.229c-3.401,29.844-28.608,51.385-59.127,50.073
		C328.801,318.691,321.524,317.019,314.456,316.007z"/>
	<path fill-rule="evenodd" clip-rule="evenodd" fill="#9486C4" d="M191.071,192.985c-48.078,0-93.122,0.925-138.106-0.315
		c-31.872-0.88-56.525-31.987-52.542-63.093c4.02-31.401,34.767-54.156,66.211-48.896c4.622,0.774,9.15,2.097,15.643,3.612
		c-1.223-9.442-2.883-17.352-3.164-25.307c-1.075-30.44,20.889-55.6,50.641-58.565c28.422-2.839,59.338,19.206,60.711,48.146
		C192.706,95.775,191.071,143.172,191.071,192.985z"/>
</g>
</svg>
